<svg id="Layer_1" data-name="Layer 1" xmlns="http://www.w3.org/2000/svg" viewBox="0 0 63.6 63.6"><defs><style>.cls-1{fill:#2763f1;}</style></defs><title>phone</title><path class="cls-1" d="M938.07,506.85l-3,4.94s-11.44,15.68,13.07,40.36h0l.12.12.11.11h0c24.67,24.51,40.36,13.07,40.36,13.07l4.94-3a5.83,5.83,0,0,0,.62-8.78l-5.89-5.89a5.82,5.82,0,0,0-7.61-.54l-6.27,4s-4.21,2.49-16-9.25-9.25-16-9.25-16l4-6.27a5.82,5.82,0,0,0-.54-7.61l-5.89-5.89A5.81,5.81,0,0,0,938.07,506.85Z" transform="translate(-932.39 -504.52)"/></svg>