<svg id="Layer_1" data-name="Layer 1" xmlns="http://www.w3.org/2000/svg" viewBox="0 0 74.34 74.32"><defs><style>.cls-1{fill:#2763f1;}</style></defs><title>skype</title><path class="cls-1" d="M952,532.84a4.33,4.33,0,0,0,2.33,2.22,21.66,21.66,0,0,0,3.87,1.29l1.26.34a49.71,49.71,0,0,1,5.5,1.91,20.76,20.76,0,0,1,3.32,1.25,10.78,10.78,0,0,1,5.77,6.18,9.87,9.87,0,0,1-1.39,8.48,13.7,13.7,0,0,1-6,4.72A18.51,18.51,0,0,1,946,554.55a3.36,3.36,0,0,1,5-4.44,11.78,11.78,0,0,0,13,2.94,7.12,7.12,0,0,0,3.09-2.33,3.14,3.14,0,0,0,.54-2.62,4.34,4.34,0,0,0-2.32-2.22,21.42,21.42,0,0,0-3.87-1.28l-1.26-.35a49.16,49.16,0,0,1-5.51-1.91,21.06,21.06,0,0,1-3.32-1.24,10.81,10.81,0,0,1-5.76-6.19,9.81,9.81,0,0,1,1.39-8.48,13.61,13.61,0,0,1,6-4.72,18.51,18.51,0,0,1,20.63,4.68,3.36,3.36,0,1,1-5,4.44,11.79,11.79,0,0,0-13-2.94,7.31,7.31,0,0,0-3.1,2.33A3.21,3.21,0,0,0,952,532.84Z" transform="translate(-922.68 -503.31)"/><path class="cls-1" d="M975.65,577.63a21.32,21.32,0,0,1-10.44-2.73,35.63,35.63,0,0,1-5.36.41,34.87,34.87,0,0,1-34.42-40.2,21.34,21.34,0,0,1,29.05-29.05,35.86,35.86,0,0,1,5.37-.41,34.87,34.87,0,0,1,34.83,34.83,34.51,34.51,0,0,1-.42,5.37,21.34,21.34,0,0,1-18.61,31.78Zm11.84-9.5a16.67,16.67,0,0,0,2.41-20.63l-.46-.75.16-.87a30.26,30.26,0,0,0-35.15-35.15l-.87.16-.75-.47a16.74,16.74,0,0,0-23,23l.47.75-.16.87a30.22,30.22,0,0,0,35.15,35.15l.87-.16.75.47a16.74,16.74,0,0,0,20.62-2.41" transform="translate(-922.68 -503.31)"/></svg>