<svg id="Layer_1" data-name="Layer 1" xmlns="http://www.w3.org/2000/svg" viewBox="0 0 104.43 104.6"><defs><style>.cls-1{fill:#4775ff;}.cls-2{fill:#3466ff;}.cls-3{fill:#fff;}</style></defs><title>API INTEGRATION</title><ellipse class="cls-1" cx="52.22" cy="52.3" rx="52.22" ry="52.3"/><path class="cls-2" d="M692.36,406.78l-74.53,73.28a52.26,52.26,0,0,0,74.53-73.28Z" transform="translate(-602.94 -391.4)"/><path class="cls-3" d="M625.51,455.89l0,0a3.91,3.91,0,0,1-.32-.61l0-.05a4.11,4.11,0,0,1-.19-.65v0a3.08,3.08,0,0,1-.07-.68h0a3.08,3.08,0,0,1,.07-.68v0a4.45,4.45,0,0,1,.19-.65l0-.05a3.91,3.91,0,0,1,.32-.61l0,0a3.73,3.73,0,0,1,.47-.58h0l12.43-12.43a3.75,3.75,0,1,1,5.31,5.31l-6,6h35.83a3.76,3.76,0,0,1,0,7.51H637.7l6,6a3.75,3.75,0,1,1-5.31,5.31L626,456.47h0A3.73,3.73,0,0,1,625.51,455.89Z" transform="translate(-602.94 -391.4)"/><path class="cls-3" d="M685.35,432.38l0,0a4,4,0,0,0,.32-.61s0,0,0-.05a3.72,3.72,0,0,0,.19-.65.06.06,0,0,0,0,0,3.85,3.85,0,0,0,.06-.69h0a3.85,3.85,0,0,0-.06-.69.08.08,0,0,0,0,0,3.72,3.72,0,0,0-.19-.65l0-.05a4,4,0,0,0-.32-.61l0,0a3.75,3.75,0,0,0-.47-.57h0l-12.42-12.42a3.75,3.75,0,0,0-5.31,5.31l6,6H637.33a3.76,3.76,0,1,0,0,7.51h35.82l-6,6a3.76,3.76,0,0,0,5.31,5.32L684.87,433h0A4.32,4.32,0,0,0,685.35,432.38Z" transform="translate(-602.94 -391.4)"/></svg>