<svg id="Layer_1" data-name="Layer 1" xmlns="http://www.w3.org/2000/svg" viewBox="0 0 104.43 104.6"><defs><style>.cls-1{fill:#4775ff;}.cls-2{fill:#3466ff;}.cls-3{fill:#fff;}</style></defs><title>BRANCH ACCOUNTING</title><ellipse class="cls-1" cx="52.22" cy="52.3" rx="52.22" ry="52.3"/><path class="cls-2" d="M692.36,406.78l-74.53,73.28a52.26,52.26,0,0,0,74.53-73.28Z" transform="translate(-602.94 -391.4)"/><path class="cls-3" d="M655.5,408A28.5,28.5,0,0,0,627,436.5v20.76a11.27,11.27,0,0,0,11.27,11.27h34.46A11.27,11.27,0,0,0,684,457.26V436.5A28.5,28.5,0,0,0,655.5,408Zm-2.56,54.16H633.21v-35h19.73Zm25.21,0H658.42v-35h19.73Z" transform="translate(-602.94 -391.4)"/></svg>