<svg id="Layer_1" data-name="Layer 1" xmlns="http://www.w3.org/2000/svg" viewBox="0 0 65.93 62.48"><defs><style>.cls-1,.cls-2,.cls-3{fill:#3e5c9a;}.cls-1{opacity:0.8;}.cls-2{opacity:0.7;}.cls-3{opacity:0.85;}.cls-4{fill:#fff;}</style></defs><title>FB COLORED LOGO</title><path class="cls-1" d="M521.32,542.22a6.5,6.5,0,0,0,6,2.06,8.59,8.59,0,0,0,5.77-4.38c2.67-4.92.77-13.72-4.9-11.92C523.67,529.41,517.64,538.18,521.32,542.22Z" transform="translate(-477.07 -481.91)"/><path class="cls-2" d="M512.35,482.49c-14,6.36-10.94,13.5-14.93,16.88s-19.74,7.68-20.34,13.24,15.34,11.12,20.34,17.34-2,13.76,18,9.77c6.11-1.23,22.19.39,21.39-14.21S524.35,477.05,512.35,482.49Z" transform="translate(-477.07 -481.91)"/><path class="cls-3" d="M480.87,495.51c2.41-10.31,18.52-9.43,26.08-5.37,12.07,6.48,18.86.95,26.81,2,10.19,1.29,15.53,31.31-3.36,41.2s-30.79,14.2-41.06,4.73c-5.56-5.12-3.95-15.78-4-22.32,0-2.85.31-6-.47-8.77-1.05-3.81-4.75-5.93-4.2-10.28A10.19,10.19,0,0,1,480.87,495.51Z" transform="translate(-477.07 -481.91)"/><path class="cls-4" d="M508,533.39h6.9V516.11h4.81l.51-5.79h-5.32V507c0-1.37.27-1.91,1.59-1.91h3.73v-6h-4.77c-5.14,0-7.45,2.26-7.45,6.59v4.61h-3.59v5.86H508Z" transform="translate(-477.07 -481.91)"/></svg>