<svg id="Layer_1" data-name="Layer 1" xmlns="http://www.w3.org/2000/svg" viewBox="0 0 104.43 104.6"><defs><style>.cls-1{fill:#4775ff;}.cls-2{fill:#3466ff;}.cls-3{fill:#fff;}</style></defs><title>MULTIPLE CURRENCIES</title><ellipse class="cls-1" cx="52.22" cy="52.3" rx="52.22" ry="52.3"/><path class="cls-2" d="M692.36,406.78l-74.53,73.28a52.26,52.26,0,0,0,74.53-73.28Z" transform="translate(-602.94 -391.4)"/><path class="cls-3" d="M647.91,417.33H633.73a4.73,4.73,0,0,0-4.73,4.73v14.18a4.73,4.73,0,0,0,4.73,4.73h14.18a4.73,4.73,0,0,0,4.73-4.73V422.06A4.73,4.73,0,0,0,647.91,417.33Zm2.36,18.91a2.37,2.37,0,0,1-2.36,2.37H633.73a2.37,2.37,0,0,1-2.37-2.37V422.06a2.37,2.37,0,0,1,2.37-2.36h14.18a2.36,2.36,0,0,1,2.36,2.36Z" transform="translate(-602.94 -391.4)"/><path class="cls-3" d="M676.27,417.33H662.09a4.73,4.73,0,0,0-4.73,4.73v14.18a4.73,4.73,0,0,0,4.73,4.73h14.18a4.73,4.73,0,0,0,4.73-4.73V422.06A4.73,4.73,0,0,0,676.27,417.33Zm2.37,18.91a2.37,2.37,0,0,1-2.37,2.37H662.09a2.37,2.37,0,0,1-2.36-2.37V422.06a2.36,2.36,0,0,1,2.36-2.36h14.18a2.37,2.37,0,0,1,2.37,2.36Z" transform="translate(-602.94 -391.4)"/><path class="cls-3" d="M647.91,445.7H633.73a4.73,4.73,0,0,0-4.73,4.72v14.19a4.73,4.73,0,0,0,4.73,4.72h14.18a4.73,4.73,0,0,0,4.73-4.72V450.42A4.73,4.73,0,0,0,647.91,445.7Zm2.36,18.91a2.36,2.36,0,0,1-2.36,2.36H633.73a2.37,2.37,0,0,1-2.37-2.36V450.42a2.37,2.37,0,0,1,2.37-2.36h14.18a2.36,2.36,0,0,1,2.36,2.36Z" transform="translate(-602.94 -391.4)"/><path class="cls-3" d="M675.09,456.33h-4.73v-4.72a1.18,1.18,0,1,0-2.36,0v4.72h-4.73a1.19,1.19,0,0,0,0,2.37H668v4.72a1.18,1.18,0,1,0,2.36,0V458.7h4.73a1.19,1.19,0,0,0,0-2.37Z" transform="translate(-602.94 -391.4)"/></svg>