<svg id="Layer_1" data-name="Layer 1" xmlns="http://www.w3.org/2000/svg" viewBox="0 0 56.28 38.42"><defs><style>.cls-1{fill:#333;}.cls-2{fill:#4d4d4d;}</style></defs><title>send icon</title><path class="cls-1" d="M525.15,526.79l-17.34-6.24,32.73-25.07.29.17Z" transform="translate(-484.55 -493)"/><path class="cls-1" d="M484.58,510.67,537.87,493l.13.26a12.48,12.48,0,0,1-1.06.73q-18.3,10.67-36.59,21.34a3.54,3.54,0,0,1-3.39.34c-4.11-1.6-8.27-3.08-12.41-4.6Z" transform="translate(-484.55 -493)"/><path class="cls-2" d="M501.49,530.44c-.61-2.54-1.23-5.08-1.82-7.64-.33-1.43-1.2-3.14-.73-4.25s2.31-1.67,3.59-2.4q11.3-6.47,22.62-12.9a2.3,2.3,0,0,1,1.19-.38c-.38.31-.75.64-1.14.94-6.6,5.05-13.22,10.08-19.78,15.2a5,5,0,0,0-1.59,2.54c-.78,2.92-1.36,5.88-2,8.82Z" transform="translate(-484.55 -493)"/><path class="cls-1" d="M511.88,523.54l-7.46,7.88-.22-.14,2.14-9.74Z" transform="translate(-484.55 -493)"/></svg>