<svg id="Layer_1" data-name="Layer 1" xmlns="http://www.w3.org/2000/svg" viewBox="0 0 31.92 25.88"><defs><style>.cls-1{fill:#4d4d4d;}</style></defs><title>Twitter.icons</title><polygon class="cls-1" points="30.83 0.41 30.83 0.41 30.83 0.41 30.83 0.41"/><path class="cls-1" d="M884.66,434.66a4.15,4.15,0,0,1-1.24.17l0-.14a10.26,10.26,0,0,0,2.49-2.84c.09-.32,0-.43,0-.44l-2.08.88-1.74.79h0a6.92,6.92,0,0,0-5-2.08c-3.62,0-6.54,2.56-6.54,5.72a8.5,8.5,0,0,0,.26,2.15c0,.17,0-.16,0,0a20.24,20.24,0,0,1-8-2.36c-5.24-2.65-5.57-4.49-5.57-4.49-.82.87-1.24,3.77-.41,6a7.44,7.44,0,0,0,2.37,2.76h0a5.68,5.68,0,0,1-1.68-.28,3.76,3.76,0,0,1-1.19-.58c-.51,1.25.52,3.48,2.29,5.07a9.21,9.21,0,0,0,2.92,1.52l-2.95.08c-.16,2.87,6,4.57,6,4.57h0a10.1,10.1,0,0,1-6.16,2.24,12.08,12.08,0,0,1-3.36-.49A16,16,0,0,0,866,456.86c11-.58,17.25-10.06,17.54-19.37l0,0a7.62,7.62,0,0,0,1.62-1.36,11.41,11.41,0,0,0,1.79-2.4S885.35,434.47,884.66,434.66Z" transform="translate(-855.08 -431)"/><path class="cls-1" d="M885.91,431.41c0,.18,0,0,0,0Z" transform="translate(-855.08 -431)"/></svg>