<svg id="Layer_1" data-name="Layer 1" xmlns="http://www.w3.org/2000/svg" viewBox="0 0 63.78 57.59"><defs><style>.cls-1,.cls-2,.cls-3{fill:#29a9e1;}.cls-1{opacity:0.8;}.cls-2{opacity:0.85;}.cls-3{opacity:0.7;}.cls-4{fill:#fff;}</style></defs><title>Twitter colored logo</title><path class="cls-1" d="M521.55,539.54a12.45,12.45,0,0,0,3.64-.29,30.88,30.88,0,0,0,7-1.77,9,9,0,0,0,5.07-4.94c2.81-7.95-8.12-7.48-12.86-6.48C519.31,527.14,514.45,538.65,521.55,539.54Z" transform="translate(-480.12 -482)"/><path class="cls-2" d="M493.39,486.39c3.06-4,10.49-6.46,15.23-2s11.88,8.07,16.07,5.42,16.45-3.54,18.12,3.48c3.83,16-2.42,31.77-18.75,37.2a32.25,32.25,0,0,1-7.78,1.88c-4.43.25-8-3.05-12.57-.82-3.23,1.59-3.31,6-7.35,5.85-8.18-.23-11.23-10.75-9-17.13C492.07,506.56,480.53,503.18,493.39,486.39Z" transform="translate(-480.12 -482)"/><path class="cls-3" d="M512.19,482.87c5.18-.52,10.44-.19,14.22,2.54s6.6,7,9.14,10.86c3.46,5.31,6.26,11.59,6.23,18-.06,10.16,7.59,11.39-7.33,17.36-15.13,6-26.16,11.42-37.31-3.51-4.91-6.56-2.24-14.66-14.2-20.05-7.21-3.25,1.28-13.34,4.65-16.22A33.75,33.75,0,0,1,502,484.7,86.09,86.09,0,0,1,512.19,482.87Z" transform="translate(-480.12 -482)"/><path class="cls-4" d="M498.45,519.29a17.15,17.15,0,0,0,9.29,2.72c11.26,0,17.62-9.5,17.23-18a12.07,12.07,0,0,0,3-3.14,12.38,12.38,0,0,1-3.48,1,6.06,6.06,0,0,0,2.66-3.36,12,12,0,0,1-3.85,1.47A6.07,6.07,0,0,0,513,505.44a17.17,17.17,0,0,1-12.49-6.33,6.06,6.06,0,0,0,1.87,8.09,6,6,0,0,1-2.74-.75,6.07,6.07,0,0,0,4.86,6,6.14,6.14,0,0,1-2.74.1,6.07,6.07,0,0,0,5.66,4.21A12.15,12.15,0,0,1,498.45,519.29Z" transform="translate(-480.12 -482)"/></svg>