<svg id="Layer_1" data-name="Layer 1" xmlns="http://www.w3.org/2000/svg" viewBox="0 0 104.43 104.6"><defs><style>.cls-1{fill:#4775ff;}.cls-2{fill:#3466ff;}.cls-3{fill:#fff;}.cls-4{fill:none;stroke:#fff;stroke-miterlimit:10;}</style></defs><title>USER FRIENDLY REPORTING</title><ellipse class="cls-1" cx="52.22" cy="52.3" rx="52.22" ry="52.3"/><path class="cls-2" d="M692.36,406.78l-74.53,73.28a52.26,52.26,0,0,0,74.53-73.28Z" transform="translate(-602.94 -391.4)"/><path class="cls-3" d="M633.54,466.46l41.26.76a5.15,5.15,0,0,0,5.25-5.06l.6-32.23a1.24,1.24,0,0,0-.36-.92l-12.66-13.14a1.31,1.31,0,0,0-.9-.39l-32.24-.6a5.17,5.17,0,0,0-5.25,5.07l-.76,41.26A5.16,5.16,0,0,0,633.54,466.46Zm34.4-46.55,8.33,8.65-5.91-.11a2.59,2.59,0,0,1-2.53-2.63Zm-36.12.08a2.59,2.59,0,0,1,2.63-2.53l30.94.58-.14,7.73a5.17,5.17,0,0,0,5.06,5.26l7.74.14-.57,30.94a2.6,2.6,0,0,1-2.63,2.54l-41.26-.77a2.57,2.57,0,0,1-2.53-2.62Z" transform="translate(-602.94 -391.4)"/><circle class="cls-4" cx="38.56" cy="36.1" r="3.5"/><rect class="cls-3" x="48.06" y="34.6" width="11" height="2"/><rect class="cls-3" x="48.06" y="39.6" width="11" height="2"/><rect class="cls-3" x="33.06" y="47.6" width="36" height="2"/><rect class="cls-3" x="33.06" y="53.6" width="36" height="2"/><rect class="cls-3" x="33.06" y="58.6" width="36" height="2"/><rect class="cls-3" x="33.06" y="64.6" width="36" height="2"/></svg>