<svg id="Layer_1" data-name="Layer 1" xmlns="http://www.w3.org/2000/svg" viewBox="0 0 104.43 104.6"><defs><style>.cls-1{fill:#4775ff;}.cls-2{fill:#3466ff;}.cls-3{fill:#f2f2f2;}</style></defs><title>WEB-BASED FINANCIAL</title><ellipse class="cls-1" cx="52.22" cy="52.3" rx="52.22" ry="52.3"/><path class="cls-2" d="M692.36,406.78l-74.53,73.28a52.26,52.26,0,0,0,74.53-73.28Z" transform="translate(-602.94 -391.4)"/><path class="cls-3" d="M675.27,429.32c-.37-.52-.76-1-1.17-1.53A24.34,24.34,0,0,0,655.37,419h-.14a24.37,24.37,0,0,0-18.58,8.79q-.61.75-1.17,1.53a24.29,24.29,0,0,0,0,28.11q.56.78,1.17,1.53a24.37,24.37,0,0,0,18.58,8.79h.14A24.34,24.34,0,0,0,674.1,459q.61-.75,1.17-1.53a24.29,24.29,0,0,0,0-28.11Zm-27-7.15a22.88,22.88,0,0,0-5.39,9.11,23.22,23.22,0,0,1-4.6-2.29A22.49,22.49,0,0,1,648.25,422.17Zm-11.16,8.35a25.91,25.91,0,0,0,5.21,2.63,38.71,38.71,0,0,0-1.34,10h-8A22.29,22.29,0,0,1,637.09,430.52Zm-4,14.65H641a38.43,38.43,0,0,0,1.29,8.43,25.82,25.82,0,0,0-5.2,2.63A22.17,22.17,0,0,1,633.08,445.17Zm5.19,12.58a23.39,23.39,0,0,1,4.59-2.28,22.77,22.77,0,0,0,5.39,9.11A22.48,22.48,0,0,1,638.27,457.75Zm16.1,7.93c-4.1-.57-7.64-4.78-9.65-10.84a37,37,0,0,1,9.65-1.48Zm0-14.31a37.58,37.58,0,0,0-10.21,1.6,37.17,37.17,0,0,1-1.16-7.8h11.37Zm0-8.2H643a38,38,0,0,1,1.21-9.39,37.51,37.51,0,0,0,10.2,1.6v7.79Zm0-9.79a37,37,0,0,1-9.64-1.47c2-6.06,5.54-10.28,9.64-10.84Zm23.37,9.79h-8.07a38.9,38.9,0,0,0-1.32-10,25.84,25.84,0,0,0,5.31-2.67A22.28,22.28,0,0,1,677.74,443.17ZM672.48,429a22.89,22.89,0,0,1-4.7,2.33,22.88,22.88,0,0,0-5.46-9.21A22.43,22.43,0,0,1,672.48,429Zm-16.11-7.9c4.06.62,7.56,4.83,9.55,10.85a36.85,36.85,0,0,1-9.55,1.44Zm0,14.29a38,38,0,0,0,10.1-1.56,37.65,37.65,0,0,1,1.2,9.35h-11.3Zm0,9.79h11.26a37.45,37.45,0,0,1-1.15,7.76,38.16,38.16,0,0,0-10.1-1.56v-6.2Zm0,20.49V453.37a36.85,36.85,0,0,1,9.55,1.44C663.93,460.83,660.43,465,656.37,465.66Zm6-1a22.7,22.7,0,0,0,5.46-9.21,23.39,23.39,0,0,1,4.7,2.32A22.43,22.43,0,0,1,662.32,464.64Zm11.34-8.41a25.84,25.84,0,0,0-5.31-2.67,38.58,38.58,0,0,0,1.28-8.39h8A22.26,22.26,0,0,1,673.66,456.23Z" transform="translate(-602.94 -391.4)"/></svg>