<svg id="Layer_1" data-name="Layer 1" xmlns="http://www.w3.org/2000/svg" viewBox="0 0 17.84 15.82"><defs><style>.cls-1{fill:#e6e6e6;}.cls-2{fill:#b3b3b3;}</style></defs><title>send icon</title><path class="cls-1" d="M483.62,286.44l-5.49-2.64,10.37-10.59.1.07Z" transform="translate(-470.75 -272.16)"/><path class="cls-1" d="M470.76,279.63l16.9-7.47,0,.11a3.28,3.28,0,0,1-.34.31c-3.86,3-7.74,6-11.6,9a.88.88,0,0,1-1.07.14c-1.31-.68-2.62-1.3-3.94-1.94Z" transform="translate(-470.75 -272.16)"/><path class="cls-2" d="M476.12,288c-.19-1.07-.39-2.15-.57-3.23a4.52,4.52,0,0,1-.23-1.79c.15-.47.73-.71,1.13-1l7.18-5.45a.62.62,0,0,1,.37-.16c-.12.14-.23.27-.36.4-2.09,2.14-4.19,4.26-6.27,6.42a2.31,2.31,0,0,0-.51,1.08c-.24,1.23-.43,2.48-.63,3.72Z" transform="translate(-470.75 -272.16)"/></svg>